<svg width="396" height="396" viewBox="0 0 396 396" fill="none" xmlns="http://www.w3.org/2000/svg">
<path d="M278.652 104.374C262.326 90.1823 251.86 85.4732 243.599 109.727C237.966 116.207 233.816 119.253 250.142 133.445C266.467 147.637 263.751 139.925 269.384 133.445C286.56 135.277 294.977 118.566 278.652 104.374Z" fill="#52A674"/>
<circle cx="198" cy="198" r="111" fill="#7EEEF5"/>
<path d="M172.19 244.763C172.19 273.585 165.293 319.667 234.591 306.774C259.67 306.774 280 283.409 280 254.587C280 225.764 262.544 260.112 237.465 260.112C212.387 260.112 172.19 215.941 172.19 244.763Z" fill="#52A674"/>
<path d="M311 160C291.901 143.397 276.507 141.513 244.271 195.852C229.513 212.829 176.289 205.595 195.388 222.197C214.487 238.8 258.742 241.653 273.5 224.676C303 216 330.099 176.603 311 160Z" fill="#52A674"/>
<path d="M101.358 197.791C178.205 342.859 148.205 202.026 188.5 197.791C210.196 195.511 228.747 162.438 226.205 138.259C226.205 107 210.196 79.7197 188.5 82C166.804 84.2803 98.8164 173.612 101.358 197.791Z" fill="#52A674"/>
<path d="M396 198C396 307.352 307.352 396 198 396C88.6476 396 0 307.352 0 198C0 88.6476 88.6476 0 198 0C307.352 0 396 88.6476 396 198ZM32.6085 198C32.6085 289.343 106.657 363.392 198 363.392C289.343 363.392 363.392 289.343 363.392 198C363.392 106.657 289.343 32.6085 198 32.6085C106.657 32.6085 32.6085 106.657 32.6085 198Z" fill="#44A3A3"/>
</svg>
